<svg xmlns="http://www.w3.org/2000/svg" xmlns:xlink="http://www.w3.org/1999/xlink" viewBox="0 0 139.609 24.999" overflow="visible"><g><path d="M 109.626 1.5 C 111.19 1.5 112.454 2.079 113.418 3.236 C 114.382 4.372 114.865 5.872 114.865 7.736 C 114.865 9.579 114.393 11.068 113.45 12.204 C 112.507 13.318 111.265 13.875 109.722 13.875 L 106.411 13.875 C 106.326 13.875 106.283 13.918 106.283 14.003 L 106.283 23.711 C 106.283 23.925 106.176 24.032 105.961 24.032 L 104.322 24.032 C 104.108 24.032 104 23.925 104 23.71 L 104 1.822 C 104 1.607 104.108 1.5 104.322 1.5 Z M 122.612 1.532 C 122.826 1.532 122.944 1.629 122.966 1.822 L 127.851 23.678 L 127.851 23.743 C 127.851 23.936 127.754 24.033 127.562 24.033 L 125.89 24.033 C 125.697 24.033 125.58 23.935 125.537 23.743 L 124.733 19.757 C 124.733 19.714 124.711 19.682 124.669 19.66 C 124.642 19.638 124.608 19.627 124.573 19.629 L 118.754 19.629 C 118.71 19.629 118.666 19.64 118.626 19.66 C 118.605 19.682 118.594 19.714 118.594 19.757 L 117.791 23.743 C 117.769 23.936 117.651 24.033 117.437 24.033 L 115.797 24.033 C 115.702 24.037 115.609 24.001 115.54 23.935 C 115.498 23.871 115.487 23.785 115.508 23.678 L 120.33 1.822 C 120.373 1.629 120.49 1.532 120.683 1.532 Z M 130.326 1.532 C 130.519 1.532 130.648 1.618 130.712 1.789 L 133.862 11.207 C 133.884 11.25 133.915 11.271 133.958 11.271 C 134.001 11.271 134.033 11.25 134.055 11.207 L 137.204 1.789 C 137.269 1.618 137.398 1.532 137.591 1.532 L 139.326 1.532 C 139.433 1.532 139.509 1.575 139.551 1.662 C 139.615 1.725 139.626 1.812 139.583 1.918 L 135.147 13.908 C 135.126 13.928 135.115 13.982 135.115 14.068 L 135.115 23.678 C 135.115 23.892 135.008 24 134.794 24 L 133.155 24 C 132.941 24 132.833 23.892 132.833 23.678 L 132.833 14.068 C 132.833 13.982 132.822 13.928 132.801 13.908 L 128.333 1.918 L 128.301 1.789 C 128.301 1.618 128.398 1.532 128.59 1.532 Z M 121.647 4.907 C 121.626 4.907 121.605 4.94 121.584 5.004 L 119.011 17.636 C 119.011 17.721 119.044 17.765 119.108 17.765 L 124.187 17.765 C 124.251 17.765 124.283 17.721 124.283 17.635 L 121.712 5.005 C 121.69 4.94 121.669 4.907 121.647 4.907 Z M 106.411 3.493 C 106.326 3.493 106.283 3.536 106.283 3.621 L 106.283 11.881 C 106.283 11.968 106.326 12.011 106.411 12.011 L 109.336 12.011 C 110.301 12.011 111.083 11.625 111.683 10.854 C 112.283 10.083 112.583 9.054 112.583 7.768 C 112.583 6.482 112.283 5.454 111.683 4.682 C 111.083 3.89 110.301 3.493 109.336 3.493 Z" fill="rgb(27,27,27)"></path><path d="M 63.685 5.956 C 64.909 7.903 65.558 10.157 65.556 12.457 C 65.556 19.391 59.765 24.999 52.626 24.999 C 45.488 24.999 39.696 19.381 39.696 12.457 C 39.676 10.067 40.36 7.848 41.548 5.957 L 43.636 7.982 C 42.921 8.801 42.528 9.852 42.528 10.939 C 42.528 13.484 44.658 15.549 47.28 15.549 C 48.39 15.551 49.467 15.171 50.33 14.472 L 52.617 16.692 L 54.904 14.472 C 55.765 15.172 56.842 15.553 57.952 15.549 C 60.575 15.549 62.705 13.484 62.705 10.939 C 62.703 9.852 62.31 8.802 61.597 7.982 Z M 72.272 1.024 C 73.399 1.024 74.145 1.147 74.901 1.393 C 75.656 1.639 76.272 2.007 76.75 2.498 C 77.228 2.968 77.582 3.561 77.811 4.277 C 78.041 4.992 78.155 5.831 78.155 6.792 L 78.155 7.995 L 73.706 7.995 L 73.706 6.568 C 73.706 6.034 73.591 5.628 73.362 5.35 C 73.132 5.073 72.768 4.933 72.272 4.933 C 71.852 4.933 71.517 5.067 71.268 5.333 C 71.019 5.601 70.896 5.959 70.896 6.407 C 70.896 6.813 71.001 7.214 71.212 7.609 C 71.422 8.005 71.766 8.415 72.244 8.842 L 75.628 11.822 C 76.202 12.314 76.708 12.88 77.134 13.504 C 77.564 14.134 77.894 14.811 78.122 15.537 C 78.356 16.295 78.473 17.084 78.467 17.877 C 78.467 18.838 78.328 19.687 78.051 20.424 C 77.795 21.128 77.389 21.768 76.861 22.299 C 76.302 22.827 75.637 23.231 74.911 23.485 C 74.147 23.763 73.257 23.901 72.245 23.901 C 71.135 23.901 70.385 23.774 69.602 23.517 C 68.818 23.26 68.168 22.865 67.652 22.331 C 67.192 21.84 66.848 21.215 66.619 20.456 C 66.389 19.698 66.275 18.828 66.275 17.846 L 66.275 15.908 L 70.725 15.908 L 70.725 18.166 C 70.725 18.722 70.858 19.165 71.126 19.496 C 71.393 19.828 71.768 19.993 72.245 19.993 C 72.722 19.993 73.095 19.838 73.362 19.528 C 73.63 19.218 73.764 18.797 73.764 18.263 C 73.764 17.686 73.658 17.196 73.448 16.789 C 73.237 16.384 72.913 15.978 72.473 15.571 L 69.233 12.72 C 68.653 12.2 68.125 11.626 67.655 11.005 C 67.198 10.401 66.836 9.731 66.579 9.019 C 66.316 8.273 66.185 7.487 66.192 6.696 C 66.192 5.778 66.335 4.966 66.622 4.26 C 66.91 3.555 67.292 2.969 67.77 2.498 C 68.305 2.007 68.955 1.638 69.72 1.393 C 70.484 1.147 71.335 1.023 72.272 1.023 Z M 92.7 1.024 C 93.828 1.024 94.574 1.147 95.33 1.393 C 96.084 1.639 96.7 2.007 97.178 2.498 C 97.656 2.968 98.01 3.561 98.24 4.277 C 98.469 4.992 98.583 5.831 98.583 6.792 L 98.583 7.995 L 94.135 7.995 L 94.135 6.568 C 94.135 6.034 94.019 5.628 93.79 5.35 C 93.561 5.073 93.197 4.933 92.7 4.933 C 92.28 4.933 91.945 5.067 91.697 5.333 C 91.447 5.601 91.324 5.959 91.324 6.407 C 91.324 6.813 91.43 7.214 91.64 7.609 C 91.85 8.004 92.195 8.415 92.672 8.842 L 96.056 11.822 C 96.63 12.314 97.136 12.88 97.562 13.504 C 97.992 14.134 98.322 14.811 98.551 15.537 C 98.78 16.264 98.895 17.044 98.895 17.877 C 98.895 18.838 98.757 19.687 98.479 20.424 C 98.223 21.128 97.817 21.768 97.289 22.299 C 96.73 22.827 96.065 23.231 95.339 23.485 C 94.576 23.763 93.686 23.901 92.673 23.901 C 91.564 23.901 90.813 23.774 90.03 23.517 C 89.247 23.26 88.596 22.865 88.08 22.331 C 87.62 21.84 87.277 21.215 87.048 20.456 C 86.818 19.698 86.704 18.828 86.704 17.846 L 86.704 15.908 L 91.153 15.908 L 91.153 18.166 C 91.153 18.722 91.285 19.165 91.553 19.496 C 91.821 19.828 92.196 19.993 92.673 19.993 C 93.15 19.993 93.523 19.838 93.791 19.528 C 94.058 19.218 94.192 18.797 94.192 18.263 C 94.192 17.686 94.087 17.196 93.876 16.789 C 93.665 16.384 93.34 15.978 92.901 15.571 L 89.661 12.72 C 89.081 12.2 88.553 11.626 88.083 11.005 C 87.627 10.401 87.264 9.731 87.007 9.019 C 86.744 8.273 86.613 7.487 86.62 6.696 C 86.62 5.778 86.764 4.966 87.051 4.26 C 87.338 3.555 87.721 2.969 88.198 2.498 C 88.733 2.007 89.383 1.638 90.148 1.393 C 90.913 1.147 91.763 1.023 92.7 1.023 Z M 11.733 1 C 14.892 1 17.568 1.95 19.587 3.573 L 19.611 3.59 C 20.837 4.527 21.597 5.53 22.068 6.422 L 22.069 6.425 C 22.865 7.933 22.835 9.121 22.835 9.121 L 18.104 9.121 C 17.86 8.106 17.19 7.355 16.7 6.92 C 15.499 5.89 13.888 5.259 11.96 5.259 C 7.735 5.259 4.714 8.445 4.714 12.45 C 4.714 16.456 7.606 19.641 11.701 19.641 C 15.374 19.641 17.811 17.496 18.721 14.815 L 11.408 14.815 L 11.408 10.968 L 23.434 10.968 L 23.434 12.735 C 23.434 19.042 18.429 23.9 11.7 23.9 C 4.972 23.9 0 18.916 0 12.45 C 0 5.984 4.972 1.001 11.733 1.001 Z M 33.74 14.56 L 34.02 14.56 L 33.656 1.194 L 38.216 1.194 L 38.216 23.714 L 34.02 23.714 L 29.432 10.32 L 29.152 10.32 L 29.516 23.713 L 24.956 23.713 L 24.956 1.193 L 29.151 1.193 L 33.739 14.56 Z M 84.807 23.713 L 80.224 23.713 L 80.224 1.193 L 84.807 1.193 Z" fill="rgb(27,27,27)"></path><path d="M 52.747 0 C 56.74 -0.012 60.521 1.798 63.014 4.917 L 52.756 14.865 L 42.5 4.907 C 42.758 4.563 43.066 4.207 43.392 3.891 C 45.738 1.499 49.063 0 52.747 0 Z M 52.747 1.634 C 49.718 1.634 46.905 2.767 44.797 4.831 L 52.747 12.541 L 60.697 4.831 C 58.578 2.767 55.777 1.634 52.747 1.634 Z" fill="rgb(27,27,27)"></path><path d="M 60.673 9.011 C 61.118 9.559 61.376 10.249 61.376 11.009 C 61.386 12.805 59.88 14.263 58.018 14.264 C 57.276 14.267 56.554 14.028 55.96 13.583 Z M 49.417 13.571 C 48.825 14.02 48.1 14.26 47.357 14.253 C 45.506 14.263 44 12.803 44 10.996 C 44 10.248 44.258 9.556 44.703 9 L 49.416 13.571 Z" fill="rgb(27,27,27)"></path></g></svg>
